<svg width="37mm" height="37mm" version="1.1" viewBox="0 0 37 37" xmlns="http://www.w3.org/2000/svg"><path d="M2,2H3V3H2zM3,2H4V3H3zM4,2H5V3H4zM5,2H6V3H5zM6,2H7V3H6zM7,2H8V3H7zM8,2H9V3H8zM12,2H13V3H12zM16,2H17V3H16zM17,2H18V3H17zM18,2H19V3H18zM20,2H21V3H20zM21,2H22V3H21zM25,2H26V3H25zM28,2H29V3H28zM29,2H30V3H29zM30,2H31V3H30zM31,2H32V3H31zM32,2H33V3H32zM33,2H34V3H33zM34,2H35V3H34zM2,3H3V4H2zM8,3H9V4H8zM11,3H12V4H11zM17,3H18V4H17zM19,3H20V4H19zM22,3H23V4H22zM23,3H24V4H23zM24,3H25V4H24zM25,3H26V4H25zM26,3H27V4H26zM28,3H29V4H28zM34,3H35V4H34zM2,4H3V5H2zM4,4H5V5H4zM5,4H6V5H5zM6,4H7V5H6zM8,4H9V5H8zM11,4H12V5H11zM16,4H17V5H16zM17,4H18V5H17zM19,4H20V5H19zM21,4H22V5H21zM22,4H23V5H22zM26,4H27V5H26zM28,4H29V5H28zM30,4H31V5H30zM31,4H32V5H31zM32,4H33V5H32zM34,4H35V5H34zM2,5H3V6H2zM4,5H5V6H4zM5,5H6V6H5zM6,5H7V6H6zM8,5H9V6H8zM12,5H13V6H12zM13,5H14V6H13zM14,5H15V6H14zM15,5H16V6H15zM19,5H20V6H19zM21,5H22V6H21zM23,5H24V6H23zM25,5H26V6H25zM28,5H29V6H28zM30,5H31V6H30zM31,5H32V6H31zM32,5H33V6H32zM34,5H35V6H34zM2,6H3V7H2zM4,6H5V7H4zM5,6H6V7H5zM6,6H7V7H6zM8,6H9V7H8zM11,6H12V7H11zM13,6H14V7H13zM14,6H15V7H14zM18,6H19V7H18zM19,6H20V7H19zM21,6H22V7H21zM24,6H25V7H24zM28,6H29V7H28zM30,6H31V7H30zM31,6H32V7H31zM32,6H33V7H32zM34,6H35V7H34zM2,7H3V8H2zM8,7H9V8H8zM10,7H11V8H10zM11,7H12V8H11zM14,7H15V8H14zM22,7H23V8H22zM23,7H24V8H23zM24,7H25V8H24zM25,7H26V8H25zM28,7H29V8H28zM34,7H35V8H34zM2,8H3V9H2zM3,8H4V9H3zM4,8H5V9H4zM5,8H6V9H5zM6,8H7V9H6zM7,8H8V9H7zM8,8H9V9H8zM10,8H11V9H10zM12,8H13V9H12zM14,8H15V9H14zM16,8H17V9H16zM18,8H19V9H18zM20,8H21V9H20zM22,8H23V9H22zM24,8H25V9H24zM26,8H27V9H26zM28,8H29V9H28zM29,8H30V9H29zM30,8H31V9H30zM31,8H32V9H31zM32,8H33V9H32zM33,8H34V9H33zM34,8H35V9H34zM12,9H13V10H12zM13,9H14V10H13zM14,9H15V10H14zM16,9H17V10H16zM19,9H20V10H19zM20,9H21V10H20zM21,9H22V10H21zM22,9H23V10H22zM23,9H24V10H23zM26,9H27V10H26zM2,10H3V11H2zM5,10H6V11H5zM7,10H8V11H7zM8,10H9V11H8zM10,10H11V11H10zM11,10H12V11H11zM13,10H14V11H13zM14,10H15V11H14zM15,10H16V11H15zM16,10H17V11H16zM17,10H18V11H17zM18,10H19V11H18zM21,10H22V11H21zM23,10H24V11H23zM27,10H28V11H27zM29,10H30V11H29zM2,11H3V12H2zM3,11H4V12H3zM4,11H5V12H4zM5,11H6V12H5zM7,11H8V12H7zM10,11H11V12H10zM11,11H12V12H11zM18,11H19V12H18zM20,11H21V12H20zM22,11H23V12H22zM26,11H27V12H26zM27,11H28V12H27zM28,11H29V12H28zM29,11H30V12H29zM33,11H34V12H33zM34,11H35V12H34zM2,12H3V13H2zM4,12H5V13H4zM7,12H8V13H7zM8,12H9V13H8zM14,12H15V13H14zM18,12H19V13H18zM19,12H20V13H19zM21,12H22V13H21zM22,12H23V13H22zM23,12H24V13H23zM24,12H25V13H24zM26,12H27V13H26zM27,12H28V13H27zM28,12H29V13H28zM29,12H30V13H29zM30,12H31V13H30zM32,12H33V13H32zM34,12H35V13H34zM2,13H3V14H2zM5,13H6V14H5zM6,13H7V14H6zM7,13H8V14H7zM9,13H10V14H9zM12,13H13V14H12zM16,13H17V14H16zM17,13H18V14H17zM19,13H20V14H19zM26,13H27V14H26zM30,13H31V14H30zM31,13H32V14H31zM33,13H34V14H33zM3,14H4V15H3zM4,14H5V15H4zM5,14H6V15H5zM7,14H8V15H7zM8,14H9V15H8zM11,14H12V15H11zM17,14H18V15H17zM21,14H22V15H21zM26,14H27V15H26zM27,14H28V15H27zM28,14H29V15H28zM31,14H32V15H31zM33,14H34V15H33zM2,15H3V16H2zM3,15H4V16H3zM5,15H6V16H5zM13,15H14V16H13zM14,15H15V16H14zM17,15H18V16H17zM18,15H19V16H18zM19,15H20V16H19zM23,15H24V16H23zM24,15H25V16H24zM25,15H26V16H25zM28,15H29V16H28zM30,15H31V16H30zM33,15H34V16H33zM34,15H35V16H34zM3,16H4V17H3zM6,16H7V17H6zM7,16H8V17H7zM8,16H9V17H8zM9,16H10V17H9zM10,16H11V17H10zM12,16H13V17H12zM13,16H14V17H13zM15,16H16V17H15zM19,16H20V17H19zM22,16H23V17H22zM25,16H26V17H25zM27,16H28V17H27zM28,16H29V17H28zM29,16H30V17H29zM30,16H31V17H30zM33,16H34V17H33zM2,17H3V18H2zM3,17H4V18H3zM9,17H10V18H9zM16,17H17V18H16zM17,17H18V18H17zM19,17H20V18H19zM21,17H22V18H21zM23,17H24V18H23zM24,17H25V18H24zM26,17H27V18H26zM28,17H29V18H28zM30,17H31V18H30zM33,17H34V18H33zM2,18H3V19H2zM6,18H7V19H6zM7,18H8V19H7zM8,18H9V19H8zM11,18H12V19H11zM16,18H17V19H16zM19,18H20V19H19zM21,18H22V19H21zM22,18H23V19H22zM23,18H24V19H23zM25,18H26V19H25zM28,18H29V19H28zM30,18H31V19H30zM31,18H32V19H31zM33,18H34V19H33zM2,19H3V20H2zM3,19H4V20H3zM4,19H5V20H4zM5,19H6V20H5zM9,19H10V20H9zM12,19H13V20H12zM14,19H15V20H14zM16,19H17V20H16zM18,19H19V20H18zM22,19H23V20H22zM23,19H24V20H23zM24,19H25V20H24zM25,19H26V20H25zM26,19H27V20H26zM27,19H28V20H27zM29,19H30V20H29zM31,19H32V20H31zM33,19H34V20H33zM2,20H3V21H2zM3,20H4V21H3zM5,20H6V21H5zM6,20H7V21H6zM8,20H9V21H8zM9,20H10V21H9zM10,20H11V21H10zM16,20H17V21H16zM18,20H19V21H18zM20,20H21V21H20zM24,20H25V21H24zM26,20H27V21H26zM28,20H29V21H28zM32,20H33V21H32zM33,20H34V21H33zM34,20H35V21H34zM2,21H3V22H2zM3,21H4V22H3zM4,21H5V22H4zM5,21H6V22H5zM10,21H11V22H10zM12,21H13V22H12zM13,21H14V22H13zM14,21H15V22H14zM15,21H16V22H15zM19,21H20V22H19zM20,21H21V22H20zM21,21H22V22H21zM23,21H24V22H23zM25,21H26V22H25zM26,21H27V22H26zM27,21H28V22H27zM29,21H30V22H29zM33,21H34V22H33zM34,21H35V22H34zM2,22H3V23H2zM3,22H4V23H3zM5,22H6V23H5zM6,22H7V23H6zM8,22H9V23H8zM10,22H11V23H10zM11,22H12V23H11zM15,22H16V23H15zM17,22H18V23H17zM18,22H19V23H18zM19,22H20V23H19zM20,22H21V23H20zM24,22H25V23H24zM25,22H26V23H25zM26,22H27V23H26zM27,22H28V23H27zM33,22H34V23H33zM34,22H35V23H34zM4,23H5V24H4zM5,23H6V24H5zM7,23H8V24H7zM9,23H10V24H9zM10,23H11V24H10zM15,23H16V24H15zM16,23H17V24H16zM17,23H18V24H17zM18,23H19V24H18zM20,23H21V24H20zM21,23H22V24H21zM22,23H23V24H22zM23,23H24V24H23zM24,23H25V24H24zM28,23H29V24H28zM33,23H34V24H33zM34,23H35V24H34zM2,24H3V25H2zM3,24H4V25H3zM7,24H8V25H7zM8,24H9V25H8zM9,24H10V25H9zM11,24H12V25H11zM12,24H13V25H12zM13,24H14V25H13zM14,24H15V25H14zM15,24H16V25H15zM17,24H18V25H17zM20,24H21V25H20zM22,24H23V25H22zM30,24H31V25H30zM32,24H33V25H32zM34,24H35V25H34zM3,25H4V26H3zM6,25H7V26H6zM7,25H8V26H7zM11,25H12V26H11zM12,25H13V26H12zM13,25H14V26H13zM15,25H16V26H15zM16,25H17V26H16zM18,25H19V26H18zM23,25H24V26H23zM24,25H25V26H24zM26,25H27V26H26zM28,25H29V26H28zM29,25H30V26H29zM31,25H32V26H31zM2,26H3V27H2zM4,26H5V27H4zM5,26H6V27H5zM8,26H9V27H8zM10,26H11V27H10zM11,26H12V27H11zM13,26H14V27H13zM17,26H18V27H17zM18,26H19V27H18zM19,26H20V27H19zM21,26H22V27H21zM23,26H24V27H23zM24,26H25V27H24zM26,26H27V27H26zM27,26H28V27H27zM28,26H29V27H28zM29,26H30V27H29zM30,26H31V27H30zM10,27H11V28H10zM12,27H13V28H12zM13,27H14V28H13zM15,27H16V28H15zM18,27H19V28H18zM20,27H21V28H20zM21,27H22V28H21zM26,27H27V28H26zM30,27H31V28H30zM31,27H32V28H31zM34,27H35V28H34zM2,28H3V29H2zM3,28H4V29H3zM4,28H5V29H4zM5,28H6V29H5zM6,28H7V29H6zM7,28H8V29H7zM8,28H9V29H8zM12,28H13V29H12zM13,28H14V29H13zM18,28H19V29H18zM23,28H24V29H23zM26,28H27V29H26zM28,28H29V29H28zM30,28H31V29H30zM31,28H32V29H31zM32,28H33V29H32zM33,28H34V29H33zM2,29H3V30H2zM8,29H9V30H8zM10,29H11V30H10zM11,29H12V30H11zM15,29H16V30H15zM16,29H17V30H16zM21,29H22V30H21zM26,29H27V30H26zM30,29H31V30H30zM33,29H34V30H33zM2,30H3V31H2zM4,30H5V31H4zM5,30H6V31H5zM6,30H7V31H6zM8,30H9V31H8zM11,30H12V31H11zM13,30H14V31H13zM14,30H15V31H14zM16,30H17V31H16zM18,30H19V31H18zM21,30H22V31H21zM24,30H25V31H24zM26,30H27V31H26zM27,30H28V31H27zM28,30H29V31H28zM29,30H30V31H29zM30,30H31V31H30zM31,30H32V31H31zM2,31H3V32H2zM4,31H5V32H4zM5,31H6V32H5zM6,31H7V32H6zM8,31H9V32H8zM10,31H11V32H10zM13,31H14V32H13zM16,31H17V32H16zM17,31H18V32H17zM21,31H22V32H21zM22,31H23V32H22zM23,31H24V32H23zM25,31H26V32H25zM28,31H29V32H28zM30,31H31V32H30zM31,31H32V32H31zM33,31H34V32H33zM2,32H3V33H2zM4,32H5V33H4zM5,32H6V33H5zM6,32H7V33H6zM8,32H9V33H8zM11,32H12V33H11zM12,32H13V33H12zM13,32H14V33H13zM14,32H15V33H14zM15,32H16V33H15zM24,32H25V33H24zM26,32H27V33H26zM30,32H31V33H30zM31,32H32V33H31zM32,32H33V33H32zM34,32H35V33H34zM2,33H3V34H2zM8,33H9V34H8zM17,33H18V34H17zM18,33H19V34H18zM19,33H20V34H19zM20,33H21V34H20zM23,33H24V34H23zM24,33H25V34H24zM25,33H26V34H25zM26,33H27V34H26zM2,34H3V35H2zM3,34H4V35H3zM4,34H5V35H4zM5,34H6V35H5zM6,34H7V35H6zM7,34H8V35H7zM8,34H9V35H8zM10,34H11V35H10zM13,34H14V35H13zM14,34H15V35H14zM15,34H16V35H15zM16,34H17V35H16zM18,34H19V35H18zM22,34H23V35H22zM23,34H24V35H23zM24,34H25V35H24zM26,34H27V35H26zM28,34H29V35H28zM30,34H31V35H30zM33,34H34V35H33z" id="qr-path" fill="#000000" fill-opacity="1" fill-rule="nonzero" stroke="none"/></svg>